# xmcd
#
# Track frame offsets:
#       150
#       16881
#       36335
#       57239
#       86740
#       106252
#       124626
#       145786
#       161965
#       182290
#       201526
#       219643
#       239649
#       260610
#       278363
#       300349
#       322166
#       337601
#
# Disc length: 4734 seconds
#
# Revision: 0
# Processed by: cddbd v1.5.1PL0 Copyright (c) Steve Scherf et al.
# Submitted via: CD-DA_X-Tractor v0.24
#
DISCID=00127c12
DTITLE=Olga Tanon - Seleccion
DYEAR=2005
DGENRE=
TTITLE0=Olga Tanon
TTITLE1=Olga Tanon
TTITLE2=Olga Tanon
TTITLE3=Olga Tanon
TTITLE4=Olga Tanon
TTITLE5=Olga Tanon
TTITLE6=Olga Tanon
TTITLE7=Olga Tanon
TTITLE8=Olga Tanon
TTITLE9=Olga Tanon
TTITLE10=Olga Tanon
TTITLE11=Olga Tanon
TTITLE12=Olga Tanon
TTITLE13=Olga Tanon
TTITLE14=Olga Tanon
TTITLE15=Olga Tanon
TTITLE16=Olga Tanon
TTITLE17=Olga Tanon
EXTD=
EXTT0=
EXTT1=
EXTT2=
EXTT3=
EXTT4=
EXTT5=
EXTT6=
EXTT7=
EXTT8=
EXTT9=
EXTT10=
EXTT11=
EXTT12=
EXTT13=
EXTT14=
EXTT15=
EXTT16=
EXTT17=
PLAYORDER=
